<svg xmlns="http://www.w3.org/2000/svg" fill="none" viewBox="0 0 512 512">
    <style>
    @media (prefers-color-scheme: dark) {
    .bg {
        fill: #262626 }
    }
    </style>
    <path class="bg" fill="#2E1F5E" d="M0 0h512v512H0z"/>
    <path fill="#fff" d="M353.4 344.27c-30.83-46.4-83.04-77.13-142.46-77.13-19.55 0-38.56 3.31-56.29 9.5a110.4 110.4 0 0 1-14.84-55.48c0-61.94 48.96-111.67 109.93-111.67 15.7 0 29.56 2.81 42.49 8.44 6.41-9.3 12.82-20.45 19.23-34.36 26.12 14.85 72.7 54.36 78.12 121.1l-51.53 75.73 15.35 63.87Z"/>
    <path fill="#000" d="m-282.33 757.91 341.1-596.77C86.02 98.98 147.39 56 218.33 56c34.18 0 66.5 9.38 93.3 27.21-6.47 14.08-12.94 25.34-19.4 34.72-12.93-5.63-26.79-8.44-42.5-8.44-60.96 0-109.92 49.73-109.92 111.67 0 20.47 5.5 39.27 14.84 55.48a170.82 170.82 0 0 1 56.29-9.5c95.14 0 171.81 78.82 171.81 174.54 0 4-.67 8.01-1.44 12.6l-.4 2.41h.92c-.46 3.29-1.15 6.57-1.85 9.86-.69 3.28-1.38 6.56-1.85 9.85v.94C313.9 810.2-87.79 803.06-150 800.2l.4-1.4-6.4-111.26-25.25 44.24-101.08 26.13Z"/>
    <path fill="#fff" d="m2.18 674.4-7.4 5.63S240.5 639.68 279.3 434.17l-38.8 13.14S230.34 606.83 2.18 674.4Z"/>
    <path fill="#000" d="M319.02 210.83c12.24 0 22.17-10.08 22.17-22.52s-9.93-22.52-22.17-22.52c-12.25 0-22.17 10.08-22.17 22.52s9.92 22.52 22.17 22.52ZM389.22 205.2l-43.41 65.7h117.31l-73.9-65.7Z"/>
</svg>
