<?xml version="1.0" encoding="utf-8"?>
<!-- Generator: Adobe Illustrator 26.0.3, SVG Export Plug-In . SVG Version: 6.00 Build 0)  -->
<svg version="1.1" id="Laag_1" xmlns="http://www.w3.org/2000/svg" xmlns:xlink="http://www.w3.org/1999/xlink" x="0px" y="0px"
	 fill="#000000" viewBox="0 0 833 235" style="enable-background:new 0 0 833 235;" xml:space="preserve">
<g>
	<path d="M277.1,141.9c-9.2-5.3-18.1-8.3-26.5-8.3c-17.4,0-30.3,14.4-30.3,34c0,20.5,14.1,35.5,32.6,35.5c9.2,0,18.1-3.1,26.6-8.7
		l8.8,29c-8.8,6.9-22,10.9-36.8,10.9c-38.6,0-66.2-27.6-66.2-65.5c0-37.5,28-66.2,64.6-66.2c12.5,0,25.7,3.3,36.3,9.2L277.1,141.9z"
		/>
	<path d="M330.4,107.4h13.9c40.8-1.3,62,18.4,60.9,57v66h-32.4v-60.9c0.6-22.6-7.9-32.2-28.4-31.7h-14.1v92.6h-32.6V12l32.6-12.2
		v107.6H330.4z"/>
	<path d="M539.7,107.4v123h-32.2l-0.4-10.9c-8.8,8.8-22,14.1-35.2,14.1c-31.3,0-56.4-28.8-56.4-64.6c0-36.3,25.7-66.2,57-66.2
		c12.1,0,23,4.2,34.5,13.2l0.4-8.8h32.2v0.1H539.7z M450,168c0,19,11.8,33,28,33c16.7,0,28.6-13.9,28.6-33.6
		c0-19.3-11.8-33.3-28.6-33.3C462.1,134.1,450,148.9,450,168z"/>
	<path d="M591.9,107.8v14.4c9.2-12.5,15.1-16.4,24.2-16.4c9.9,0,19,5.6,27.6,16.4l-16.2,24.7c-5.2-6.9-9.9-9.5-16.2-9.5
		c-12.9,0-19,11.8-19,35.5v57.5h-32.2V107.8H591.9z"/>
	<path d="M699.4,107.8c13.2-0.4,27.6,2.9,35.9,7.5c8.8-6.4,22.6-10.2,37.2-10.2c26.5,0,48.1,13.2,56.4,34.9
		c3.3,8.3,4.2,15.5,4.2,29.9v60.6h-32.6v-59c0-24.7-7.6-35.2-25.7-35.2c-5.6,0-8.3,0.8-16.8,3.7v90.5h-32.6v-60.2
		c1-24.3-7.3-33.3-30.3-33.3H683v93.5h-32.6V107.8H699.4z"/>
</g>
<path d="M117.4,200.3h-64c-2.5,0-4.6,2.1-4.6,4.6s2.1,4.6,4.6,4.6h64c2.5,0,4.6-2.1,4.6-4.6S119.9,200.3,117.4,200.3z"/>
<path d="M85.9,234.8c14.3,0,26.1-6,27.5-13.6c0.2-0.8-0.5-1.6-1.4-1.6H59.8c-0.9,0-1.6,0.8-1.4,1.6
	C59.8,228.8,71.6,234.8,85.9,234.8L85.9,234.8z"/>
<g>
	<path d="M144.2,23.1c-17-15.9-39.4-23.9-62.9-22.9c-44,2-79.6,37.4-81,80.4c-0.7,20,6.1,39.6,19,55.1c9.2,11.1,14.3,25.9,14.3,41.6
		v0.9c0,7,5.9,12.8,13.1,12.8h33.3v-52.4c-0.3-0.2-0.5-0.4-0.8-0.6c-3.6-3.2-7.1-6.1-10.2-8.7l-0.1-0.1c-18.6-15.8-32-27.2-32-44.4
		c0-16.5,11.6-28.9,27-28.9c5.6,0,10.8,1.8,15.3,5.3c1.6,1.2,3.2,2.7,4.6,3.9c1.3-1.2,3-2.7,4.6-3.9c4.5-3.5,9.7-5.3,15.3-5.3
		c15.4,0,27,12.4,27,28.9c0,17.1-13.4,28.6-32,44.4c-3,2.6-6.4,5.5-10,8.6v53.2h35.4c7.2,0,13.1-5.8,13.1-12.8v-1.3
		c0-15.1,5.4-29.9,15.7-42.9c11.5-14.6,17.6-32.1,17.6-50.6C170.6,60.3,161.2,38.9,144.2,23.1z"/>
	<path d="M121.7,84.8c0-11.4-7.8-19.9-18-19.9c-3.6,0-6.9,1.1-9.8,3.4c-3.3,2.5-6.9,6.1-6.9,6.2l-3.2,3.2l-3.2-3.2
		c0,0-3.6-3.6-6.9-6.2c-2.9-2.3-6.2-3.4-9.8-3.4c-10.3,0-18,8.6-18,19.9c0,13,11.5,22.7,28.8,37.5l0.1,0.1c2.8,2.3,5.8,5,9,7.8
		c3.3-2.8,6.4-5.5,9.1-7.8C110.2,107.5,121.7,97.7,121.7,84.8z"/>
</g>
<path d="M118,106"/>
<path d="M117.7,135.2"/>
</svg>
