<svg xmlns="http://www.w3.org/2000/svg" id="arrow" viewBox="0 0 500 500">
    <path d="M416.45 269.508c-5.942-5.945-15.577-5.945-21.52 0l-129.84 142.86V46.792c0-8.612-6.978-15.6-15.582-15.6-8.605 0-15.58 6.987-15.58 15.6v365.563L104.083 269.508c-5.94-5.945-15.576-5.945-21.52 0-5.94 5.952-5.94 15.58 0 21.535l154.427 169.895c.177.25.474.37.663.607.402.52.24 1.26.72 1.73.594.603 1.492.418 2.15.897 2.24 1.775 4.812 2.983 7.83 3.244.343.013.607.255.957.247.07 0 .123.046.198.046.08 0 .146-.04.223-.04.216 0 .38-.11.596-.11 3.67-.21 6.97-1.64 9.53-3.948.226-.21.57-.11.783-.338.215-.204.125-.546.322-.77.18-.198.14-.532.307-.735l155.18-170.727c5.94-5.956 5.94-15.583 0-21.535z"/>
</svg>