<svg fill="#fff" viewBox="0 0 384 512" xmlns="http://www.w3.org/2000/svg"><path d="m336 64h-53.88c-13.22-37.2-48.42-64-90.12-64s-76.9 26.8-90.1 64h-53.9c-26.5 0-48 21.48-48 48v352c0 26.5 21.5 48 48 48h288c26.5 0 48-21.48 48-48v-352c0-26.52-21.5-48-48-48zm-240 328c-13.25 0-24-10.75-24-24s10.75-24 24-24 24 10.75 24 24-10.7 24-24 24zm0-96c-13.25 0-24-10.75-24-24s10.75-24 24-24 24 10.8 24 24-10.7 24-24 24zm96-232c17.67 0 32 14.33 32 32s-14.33 32-32 32-32-14.3-32-32c0-17.67 14.3-32 32-32zm112 320h-128c-8.8 0-16-7.2-16-16s7.2-16 16-16h128c8.801 0 16 7.199 16 16 0 8.8-7.2 16-16 16zm0-96h-128c-8.8 0-16-7.2-16-16s7.2-16 16-16h128c8.8 0 16 7.2 16 16s-7.2 16-16 16z"/></svg>