<svg width="938" height="780" viewBox="0 0 938 780" fill="none" xmlns="http://www.w3.org/2000/svg">
<mask id="mask0_5962_1632" style="mask-type:alpha" maskUnits="userSpaceOnUse" x="70" y="180" width="798" height="530">
<path d="M336.768 357C292.268 318.5 352.601 245.5 418.268 236L433.268 180C276.768 312 127.373 216.391 71.768 402.5C47.2682 484.5 285.911 487.5 261.268 545C223.768 632.5 485.268 846 645.268 580.5C684.213 515.876 794.268 635.5 857.768 527.5C877.171 494.5 885.768 414.5 687.268 349C488.768 283.5 412.083 422.16 336.768 357Z" fill="#050A4A"/>
</mask>
<g mask="url(#mask0_5962_1632)">
<rect x="-51.7321" y="58" width="1067" height="799" fill="#050A4A"/>
<g filter="url(#filter0_f_5962_1632)">
<path d="M359.268 243.5C266.268 243.5 174.768 284.5 202.268 332C315.764 528.039 521.268 255.5 695.268 284.5C869.268 313.5 768.268 672 581.268 615C394.268 558 312.768 459.5 167.768 574" stroke="#5E55F0" stroke-width="71" stroke-linecap="round"/>
</g>
<g filter="url(#filter1_f_5962_1632)">
<path d="M342.268 254.5C280.768 254.5 174.768 444.5 202.268 492C315.764 688.039 521.268 415.5 695.268 444.5C869.268 473.5 768.268 672 581.268 615C394.268 558 312.768 459.5 167.768 574" stroke="#D9ECE9" stroke-width="10" stroke-linecap="round"/>
</g>
</g>
<mask id="mask1_5962_1632" style="mask-type:alpha" maskUnits="userSpaceOnUse" x="235" y="227" width="131" height="118">
<path d="M365.768 273L346.768 227C323.268 227 252.268 258.5 235.268 345C299.768 298 328.768 320 365.768 273Z" fill="url(#paint0_linear_5962_1632)"/>
</mask>
<g mask="url(#mask1_5962_1632)">
<g filter="url(#filter2_f_5962_1632)">
<path d="M371.268 280.5L346.768 227C323.268 227 252.268 258.5 235.268 345C299.768 298 334.268 327.5 371.268 280.5Z" fill="#D9ECE9"/>
</g>
</g>
<path d="M534.026 117.299C557.985 121.969 573.524 145.362 568.697 169.496C563.868 193.628 540.51 209.325 516.575 204.52C492.739 199.735 477.338 176.41 482.148 152.372C486.958 128.334 510.16 112.647 534.026 117.299Z" fill="#D9ECE9"/>
<path d="M541.706 169.652C536.165 164.274 528.173 161.638 520.092 163.372C517.433 163.943 514.945 164.946 512.714 166.3C510.972 164.379 509.679 161.996 509.084 159.225C507.286 150.844 512.5 142.685 520.791 140.906C522.926 140.448 524.892 140.424 526.815 140.809C527.416 139.363 527.965 137.667 528.433 135.597C532.416 136.844 539.897 140.832 542.573 149.707L537.764 161.457L541.706 169.652Z" fill="white"/>
<path d="M480.206 237.741L486.5 245.84L482.398 230.971L480.206 237.741Z" fill="black"/>
<path d="M467.261 244.181L496.32 153.469C498.221 144.262 505.319 136.655 514.966 134.585C519.614 133.587 524.283 133.914 528.444 135.544C527.974 137.638 527.421 139.351 526.814 140.809C524.892 140.425 522.926 140.448 520.79 140.906C512.499 142.685 507.285 150.844 509.084 159.225C509.679 161.996 510.972 164.38 512.713 166.3C514.944 164.946 517.433 163.943 520.092 163.372C533.031 160.595 545.747 169.025 548.527 181.977C548.643 182.52 548.668 183.081 548.696 183.725C548.701 183.835 548.706 183.948 548.711 184.063L548.837 184.036C548.87 184.494 548.871 184.959 548.872 185.423C548.873 185.888 548.874 186.353 548.907 186.811L548.934 186.938C549.863 233.857 495.029 244.613 486.485 246.041L486.5 245.84L482.398 230.971L480.249 237.694L467.261 244.181Z" fill="black"/>
<path d="M503.528 224.576L502.686 225.554C502.686 225.554 534.931 212.923 534.239 183.981L529.344 186.891C529.344 186.891 532.595 208.775 503.528 224.576Z" fill="white"/>
<path d="M533.156 152.599C534.821 152.241 535.878 150.587 535.517 148.904C535.155 147.221 533.513 146.146 531.848 146.503C530.183 146.861 529.125 148.515 529.487 150.198C529.848 151.881 531.491 152.956 533.156 152.599Z" fill="black"/>
<path d="M542.54 149.788L538.543 159.944L554.497 156.521L542.54 149.788Z" fill="black"/>
<path d="M482.398 230.971L464.95 285.56L484.382 274.191L486.5 245.84L482.398 230.971Z" fill="black"/>
<g opacity="0.5" filter="url(#filter3_f_5962_1632)">
<path d="M502.07 89.278C538.763 80.1239 651.504 77.3313 660.711 95.7799C669.917 114.229 630.982 170.353 581.766 222.33C558.704 246.686 526.655 262.609 492.945 272.281C492.847 272.842 489.47 291.851 482.996 302.051C472.647 318.358 444.183 328.229 434.221 331.267C432.414 331.818 430.625 330.513 430.521 328.626L428.042 283.744C411.839 285.005 396.373 285.087 382.526 284.245L344.99 209.032C352.549 194.187 361.936 180.841 372.407 168.917L371.484 169.705L338.397 139.194C337.008 137.913 337.138 135.703 338.714 134.66C347.396 128.908 373.123 113.232 392.289 115.625C403.351 117.006 418.52 125.194 421.188 126.672C452.062 106.026 483.176 93.9915 502.07 89.278ZM568.698 169.496C573.524 145.362 557.985 121.969 534.026 117.299C510.161 112.647 486.959 128.334 482.149 152.372C477.339 176.41 492.739 199.735 516.576 204.52C540.51 209.326 563.868 193.628 568.698 169.496Z" fill="#8FA7FF"/>
</g>
<mask id="mask2_5962_1632" style="mask-type:alpha" maskUnits="userSpaceOnUse" x="334" y="217" width="45" height="64">
<path d="M335.544 225.295L348.508 217.81C349.61 217.174 351.02 217.581 351.614 218.707L378.609 269.927C379.198 271.046 378.747 272.431 377.611 272.988L363.355 279.97C362.253 280.51 360.922 280.064 360.368 278.97L334.665 228.251C334.126 227.189 334.512 225.89 335.544 225.295Z" fill="#D9D9D9"/>
</mask>
<g mask="url(#mask2_5962_1632)">
<rect x="301.651" y="103.747" width="384.299" height="358.879" transform="rotate(18.4777 301.651 103.747)" fill="#101010"/>
<g filter="url(#filter4_if_5962_1632)">
<path d="M348.695 218.134C349.613 217.603 350.788 217.943 351.283 218.881L378.278 270.102C378.769 271.035 378.393 272.188 377.447 272.652L363.191 279.634C362.273 280.084 361.164 279.712 360.702 278.801L334.998 228.082C334.55 227.196 334.871 226.115 335.731 225.619L348.695 218.134Z" stroke="#8FA7FF" stroke-width="0.747664" stroke-linecap="round"/>
</g>
<g filter="url(#filter5_f_5962_1632)">
<path d="M332.583 214.401C255.574 106.738 296.146 216.543 329.218 278.326C363.237 341.878 428.658 299.635 412.957 249.541" stroke="#4975FE" stroke-width="45.6075"/>
</g>
</g>
<mask id="mask3_5962_1632" style="mask-type:alpha" maskUnits="userSpaceOnUse" x="428" y="272" width="65" height="60">
<path d="M430.52 328.626L428.039 283.687L492.948 272.269C492.948 272.269 489.567 291.698 482.996 302.052C472.646 318.359 444.182 328.229 434.22 331.267C432.413 331.819 430.624 330.513 430.52 328.626Z" fill="#D9D9D9"/>
</mask>
<g mask="url(#mask3_5962_1632)">
<rect x="453.708" y="104.255" width="384.299" height="358.879" transform="rotate(18.4777 453.708 104.255)" fill="#101010"/>
<g filter="url(#filter6_f_5962_1632)">
<path d="M399.789 274.459C392.637 313.531 305.978 314.244 371.625 338.768C445.818 366.484 530.406 305.752 501.161 218.045" stroke="#4975FE" stroke-width="45.6075"/>
</g>
<g filter="url(#filter7_f_5962_1632)">
<path d="M430.52 328.626L428.039 283.687L492.948 272.269C492.948 272.269 489.567 291.698 482.996 302.052C472.646 318.359 444.182 328.229 434.22 331.267C432.413 331.819 430.625 330.513 430.52 328.626Z" stroke="#8FA7FF" stroke-width="0.747664"/>
</g>
</g>
<mask id="mask4_5962_1632" style="mask-type:alpha" maskUnits="userSpaceOnUse" x="337" y="115" width="85" height="55">
<path d="M338.396 139.194L371.484 169.705L421.596 126.899C421.596 126.899 404.457 117.144 392.288 115.624C373.123 113.231 347.396 128.908 338.713 134.659C337.138 135.703 337.007 137.913 338.396 139.194Z" fill="black"/>
</mask>
<g mask="url(#mask4_5962_1632)">
<rect x="363.508" y="-52.8036" width="384.299" height="358.879" transform="rotate(18.4777 363.508 -52.8036)" fill="#101010"/>
<g filter="url(#filter8_f_5962_1632)">
<path d="M456.22 222.945C474.673 187.771 526.582 127.571 465.438 93.3304C409.363 61.9286 203.008 105.667 361.139 190.527" stroke="#4975FE" stroke-width="45.6075"/>
</g>
<g filter="url(#filter9_f_5962_1632)">
<path d="M338.397 139.194L371.484 169.705L421.596 126.899C421.596 126.899 404.457 117.144 392.288 115.624C373.123 113.231 347.396 128.908 338.713 134.659C337.138 135.703 337.007 137.913 338.397 139.194Z" stroke="#8FA7FF" stroke-width="0.747664"/>
</g>
</g>
<mask id="mask5_5962_1632" style="mask-type:alpha" maskUnits="userSpaceOnUse" x="345" y="82" width="318" height="203">
<path d="M502.069 89.2777C538.762 80.1236 651.503 77.331 660.71 95.7796C669.917 114.229 630.982 170.352 581.766 222.33C533.712 273.08 446.641 287.22 386.821 284.474C384.153 284.351 381.79 282.772 380.598 280.382L346.673 212.404C345.614 210.283 345.619 207.773 346.739 205.683C385.101 134.085 465.935 98.2924 502.069 89.2777ZM568.697 169.496C573.523 145.362 557.985 121.968 534.025 117.299C510.16 112.647 486.958 128.334 482.148 152.372C477.338 176.41 492.738 199.735 516.575 204.52C540.509 209.326 563.868 193.628 568.697 169.496Z" fill="black"/>
</mask>
<g mask="url(#mask5_5962_1632)">
<rect x="363.508" y="-52.8036" width="384.299" height="358.879" transform="rotate(18.4777 363.508 -52.8036)" fill="#101010"/>
<g filter="url(#filter10_if_5962_1632)">
<mask id="path-29-inside-1_5962_1632" fill="white">
<path d="M502.069 89.2778C538.763 80.1237 651.504 77.3311 660.711 95.7797C669.917 114.229 630.982 170.352 581.766 222.33C532.549 274.308 442.403 287.884 382.526 284.245L344.989 209.031C382.59 135.198 465.376 98.4319 502.069 89.2778ZM568.698 169.496C573.524 145.362 557.985 121.969 534.026 117.299C510.16 112.647 486.958 128.334 482.148 152.372C477.338 176.41 492.739 199.735 516.575 204.52C540.509 209.326 563.868 193.628 568.698 169.496Z"/>
</mask>
<path d="M502.069 89.2778C538.763 80.1237 651.504 77.3311 660.711 95.7797C669.917 114.229 630.982 170.352 581.766 222.33C532.549 274.308 442.403 287.884 382.526 284.245L344.989 209.031C382.59 135.198 465.376 98.4319 502.069 89.2778ZM568.698 169.496C573.524 145.362 557.985 121.969 534.026 117.299C510.16 112.647 486.958 128.334 482.148 152.372C477.338 176.41 492.739 199.735 516.575 204.52C540.509 209.326 563.868 193.628 568.698 169.496Z" fill="#101010"/>
<path d="M502.069 89.2778L502.431 90.7287V90.7287L502.069 89.2778ZM660.711 95.7797L662.049 95.112L662.049 95.1119L660.711 95.7797ZM581.766 222.33L582.852 223.358L582.852 223.358L581.766 222.33ZM382.526 284.245L381.188 284.913L381.573 285.685L382.435 285.738L382.526 284.245ZM344.989 209.031L343.657 208.353L343.314 209.025L343.651 209.699L344.989 209.031ZM568.698 169.496L570.164 169.789L570.164 169.789L568.698 169.496ZM534.026 117.299L533.74 118.766L533.74 118.766L534.026 117.299ZM482.148 152.372L480.682 152.079L480.682 152.079L482.148 152.372ZM516.575 204.52L516.869 203.054L516.869 203.054L516.575 204.52ZM502.069 89.2778L502.431 90.7287C520.592 86.198 557.8 83.2099 591.677 83.6729C608.601 83.9043 624.614 84.9964 636.939 87.1662C643.107 88.2519 648.29 89.5973 652.183 91.2096C656.143 92.8497 658.474 94.6471 659.373 96.4474L660.711 95.7797L662.049 95.1119C660.645 92.3002 657.439 90.1492 653.328 88.4466C649.15 86.7162 643.728 85.3245 637.458 84.2208C624.908 82.0116 608.716 80.9149 591.718 80.6826C557.749 80.2183 520.24 83.2036 501.708 87.8269L502.069 89.2778ZM660.711 95.7797L659.373 96.4473C661.378 100.467 660.88 106.904 657.774 115.52C654.704 124.037 649.229 134.299 641.89 145.671C627.221 168.403 605.248 195.355 580.68 221.302L581.766 222.33L582.852 223.358C607.5 197.327 629.602 170.228 644.403 147.292C651.8 135.83 657.408 125.353 660.587 116.534C663.73 107.814 664.646 100.317 662.049 95.112L660.711 95.7797ZM581.766 222.33L580.68 221.302C556.332 247.017 521.783 263.302 485.766 272.697C449.761 282.089 412.415 284.563 382.617 282.752L382.526 284.245L382.435 285.738C412.514 287.566 450.179 285.071 486.521 275.591C522.851 266.114 557.983 249.622 582.852 223.358L581.766 222.33ZM382.526 284.245L383.864 283.577L346.327 208.364L344.989 209.031L343.651 209.699L381.188 284.913L382.526 284.245ZM344.989 209.031L346.322 209.71C364.968 173.096 394.846 145.624 424.687 126.152C454.53 106.679 484.246 95.2655 502.431 90.7287L502.069 89.2778L501.708 87.8269C483.2 92.4442 453.176 103.991 423.052 123.648C392.926 143.306 362.611 171.134 343.657 208.353L344.989 209.031ZM568.698 169.496L570.164 169.789C575.15 144.854 559.096 120.662 534.312 115.831L534.026 117.299L533.74 118.766C556.874 123.275 571.897 145.87 567.231 169.203L568.698 169.496ZM534.026 117.299L534.312 115.831C509.627 111.02 485.651 127.245 480.682 152.079L482.148 152.372L483.615 152.665C488.265 129.423 510.693 114.274 533.74 118.766L534.026 117.299ZM482.148 152.372L480.682 152.079C475.712 176.915 491.624 201.036 516.281 205.986L516.575 204.52L516.869 203.054C493.854 198.434 478.964 175.905 483.615 152.665L482.148 152.372ZM516.575 204.52L516.281 205.986C541.036 210.957 565.174 194.721 570.164 169.789L568.698 169.496L567.231 169.202C562.562 192.536 539.982 207.695 516.869 203.054L516.575 204.52Z" fill="#8FA7FF" mask="url(#path-29-inside-1_5962_1632)"/>
</g>
<g filter="url(#filter11_f_5962_1632)">
<path d="M515.663 169.482C508.357 154.85 527.473 150.967 532.785 161.606C538.461 172.972 522.969 184.114 515.663 169.482Z" stroke="#4975FE" stroke-width="45.6075"/>
</g>
<g filter="url(#filter12_f_5962_1632)">
<path d="M375.782 131.032C337.709 142.351 287.152 183.55 340.51 228.981C405.93 284.682 451.912 289.541 515.837 276.457" stroke="#4975FE" stroke-width="45.6075"/>
</g>
<g filter="url(#filter13_f_5962_1632)">
<path d="M320.106 154.379C349.924 7.34921 736.521 26.9514 693.101 92.5829C609.295 219.261 529.146 288.864 392.846 291.037" stroke="#4975FE" stroke-width="45.6075"/>
</g>
<g filter="url(#filter14_if_5962_1632)">
<mask id="path-34-inside-2_5962_1632" fill="white">
<path d="M502.069 88.5301C538.763 79.376 651.504 76.5835 660.711 95.032C669.917 113.481 630.982 169.605 581.766 221.583C532.549 273.561 442.403 287.136 382.526 283.497L344.989 208.284C382.59 134.45 465.376 97.6842 502.069 88.5301ZM568.698 168.748C573.524 144.614 557.985 121.221 534.026 116.551C510.16 111.899 486.958 127.586 482.148 151.624C477.338 175.662 492.739 198.987 516.575 203.773C540.509 208.578 563.868 192.881 568.698 168.748Z"/>
</mask>
<path d="M502.069 88.5301L502.431 89.981V89.981L502.069 88.5301ZM660.711 95.032L662.049 94.3643L662.049 94.3643L660.711 95.032ZM581.766 221.583L582.852 222.611L582.852 222.611L581.766 221.583ZM382.526 283.497L381.188 284.165L381.573 284.938L382.435 284.99L382.526 283.497ZM344.989 208.284L343.657 207.605L343.314 208.277L343.651 208.951L344.989 208.284ZM568.698 168.748L570.164 169.042L570.164 169.041L568.698 168.748ZM534.026 116.551L533.74 118.019L533.74 118.019L534.026 116.551ZM482.148 151.624L480.682 151.331L480.682 151.331L482.148 151.624ZM516.575 203.773L516.869 202.307L516.869 202.307L516.575 203.773ZM502.069 88.5301L502.431 89.981C520.592 85.4503 557.8 82.4622 591.677 82.9253C608.601 83.1566 624.614 84.2488 636.939 86.4185C643.107 87.5042 648.29 88.8496 652.183 90.4619C656.143 92.102 658.474 93.8994 659.373 95.6997L660.711 95.032L662.049 94.3643C660.645 91.5525 657.439 89.4015 653.328 87.6989C649.15 85.9685 643.728 84.5769 637.458 83.4731C624.908 81.2639 608.716 80.1672 591.718 79.9349C557.749 79.4706 520.24 82.4559 501.708 87.0793L502.069 88.5301ZM660.711 95.032L659.373 95.6997C661.378 99.7192 660.88 106.156 657.774 114.772C654.704 123.289 649.229 133.551 641.89 144.923C627.221 167.656 605.248 194.608 580.68 220.554L581.766 221.583L582.852 222.611C607.5 196.58 629.602 169.481 644.403 146.545C651.8 135.083 657.408 124.606 660.587 115.786C663.73 107.066 664.646 99.5694 662.049 94.3643L660.711 95.032ZM581.766 221.583L580.68 220.554C556.332 246.269 521.783 262.554 485.766 271.949C449.761 281.342 412.415 283.816 382.617 282.005L382.526 283.497L382.435 284.99C412.514 286.818 450.179 284.323 486.521 274.843C522.851 265.366 557.983 248.874 582.852 222.611L581.766 221.583ZM382.526 283.497L383.864 282.83L346.327 207.616L344.989 208.284L343.651 208.951L381.188 284.165L382.526 283.497ZM344.989 208.284L346.322 208.962C364.968 172.348 394.846 144.876 424.687 125.404C454.53 105.931 484.246 94.5178 502.431 89.981L502.069 88.5301L501.708 87.0793C483.2 91.6965 453.176 103.243 423.052 122.9C392.926 142.558 362.611 170.386 343.657 207.605L344.989 208.284ZM568.698 168.748L570.164 169.041C575.15 144.106 559.096 119.914 534.312 115.083L534.026 116.551L533.74 118.019C556.874 122.528 571.897 145.122 567.231 168.455L568.698 168.748ZM534.026 116.551L534.312 115.083C509.627 110.272 485.651 126.497 480.682 151.331L482.148 151.624L483.615 151.918C488.265 128.675 510.693 113.527 533.74 118.019L534.026 116.551ZM482.148 151.624L480.682 151.331C475.712 176.167 491.624 200.289 516.281 205.239L516.575 203.773L516.869 202.307C493.854 197.686 478.964 175.157 483.615 151.918L482.148 151.624ZM516.575 203.773L516.281 205.239C541.036 210.209 565.174 193.973 570.164 169.042L568.698 168.748L567.231 168.455C562.562 191.788 539.982 206.947 516.869 202.307L516.575 203.773Z" fill="#D9ECE9" mask="url(#path-34-inside-2_5962_1632)"/>
</g>
</g>
<defs>
<filter id="filter0_f_5962_1632" x="-71.7335" y="4" width="1096.32" height="856.642" filterUnits="userSpaceOnUse" color-interpolation-filters="sRGB">
<feFlood flood-opacity="0" result="BackgroundImageFix"/>
<feBlend mode="normal" in="SourceGraphic" in2="BackgroundImageFix" result="shape"/>
<feGaussianBlur stdDeviation="102" result="effect1_foregroundBlur_5962_1632"/>
</filter>
<filter id="filter1_f_5962_1632" x="88.7679" y="175.5" width="775.32" height="528.72" filterUnits="userSpaceOnUse" color-interpolation-filters="sRGB">
<feFlood flood-opacity="0" result="BackgroundImageFix"/>
<feBlend mode="normal" in="SourceGraphic" in2="BackgroundImageFix" result="shape"/>
<feGaussianBlur stdDeviation="37" result="effect1_foregroundBlur_5962_1632"/>
</filter>
<filter id="filter2_f_5962_1632" x="211.268" y="203" width="184" height="166" filterUnits="userSpaceOnUse" color-interpolation-filters="sRGB">
<feFlood flood-opacity="0" result="BackgroundImageFix"/>
<feBlend mode="normal" in="SourceGraphic" in2="BackgroundImageFix" result="shape"/>
<feGaussianBlur stdDeviation="12" result="effect1_foregroundBlur_5962_1632"/>
</filter>
<filter id="filter3_f_5962_1632" x="304.54" y="49.2335" width="390.424" height="315.058" filterUnits="userSpaceOnUse" color-interpolation-filters="sRGB">
<feFlood flood-opacity="0" result="BackgroundImageFix"/>
<feBlend mode="normal" in="SourceGraphic" in2="BackgroundImageFix" result="shape"/>
<feGaussianBlur stdDeviation="16.4486" result="effect1_foregroundBlur_5962_1632"/>
</filter>
<filter id="filter4_if_5962_1632" x="330.684" y="213.771" width="51.9226" height="70.1669" filterUnits="userSpaceOnUse" color-interpolation-filters="sRGB">
<feFlood flood-opacity="0" result="BackgroundImageFix"/>
<feBlend mode="normal" in="SourceGraphic" in2="BackgroundImageFix" result="shape"/>
<feColorMatrix in="SourceAlpha" type="matrix" values="0 0 0 0 0 0 0 0 0 0 0 0 0 0 0 0 0 0 127 0" result="hardAlpha"/>
<feOffset dy="2.99065"/>
<feGaussianBlur stdDeviation="1.49533"/>
<feComposite in2="hardAlpha" operator="arithmetic" k2="-1" k3="1"/>
<feColorMatrix type="matrix" values="0 0 0 0 0.85098 0 0 0 0 0.92549 0 0 0 0 0.913725 0 0 0 1 0"/>
<feBlend mode="normal" in2="shape" result="effect1_innerShadow_5962_1632"/>
<feGaussianBlur stdDeviation="1.86916" result="effect2_foregroundBlur_5962_1632"/>
</filter>
<filter id="filter5_f_5962_1632" x="225.328" y="105.866" width="253.21" height="267.711" filterUnits="userSpaceOnUse" color-interpolation-filters="sRGB">
<feFlood flood-opacity="0" result="BackgroundImageFix"/>
<feBlend mode="normal" in="SourceGraphic" in2="BackgroundImageFix" result="shape"/>
<feGaussianBlur stdDeviation="20.1869" result="effect1_foregroundBlur_5962_1632"/>
</filter>
<filter id="filter6_f_5962_1632" x="283.986" y="170.458" width="286.284" height="238.261" filterUnits="userSpaceOnUse" color-interpolation-filters="sRGB">
<feFlood flood-opacity="0" result="BackgroundImageFix"/>
<feBlend mode="normal" in="SourceGraphic" in2="BackgroundImageFix" result="shape"/>
<feGaussianBlur stdDeviation="20.1869" result="effect1_foregroundBlur_5962_1632"/>
</filter>
<filter id="filter7_f_5962_1632" x="401.479" y="245.64" width="118.097" height="112.297" filterUnits="userSpaceOnUse" color-interpolation-filters="sRGB">
<feFlood flood-opacity="0" result="BackgroundImageFix"/>
<feBlend mode="normal" in="SourceGraphic" in2="BackgroundImageFix" result="shape"/>
<feGaussianBlur stdDeviation="13.0841" result="effect1_foregroundBlur_5962_1632"/>
</filter>
<filter id="filter8_f_5962_1632" x="239.447" y="19.9756" width="318.105" height="253.938" filterUnits="userSpaceOnUse" color-interpolation-filters="sRGB">
<feFlood flood-opacity="0" result="BackgroundImageFix"/>
<feBlend mode="normal" in="SourceGraphic" in2="BackgroundImageFix" result="shape"/>
<feGaussianBlur stdDeviation="20.1869" result="effect1_foregroundBlur_5962_1632"/>
</filter>
<filter id="filter9_f_5962_1632" x="329.587" y="107.527" width="100.134" height="70.1536" filterUnits="userSpaceOnUse" color-interpolation-filters="sRGB">
<feFlood flood-opacity="0" result="BackgroundImageFix"/>
<feBlend mode="normal" in="SourceGraphic" in2="BackgroundImageFix" result="shape"/>
<feGaussianBlur stdDeviation="3.73832" result="effect1_foregroundBlur_5962_1632"/>
</filter>
<filter id="filter10_if_5962_1632" x="326.297" y="63.4388" width="354.46" height="240.052" filterUnits="userSpaceOnUse" color-interpolation-filters="sRGB">
<feFlood flood-opacity="0" result="BackgroundImageFix"/>
<feBlend mode="normal" in="SourceGraphic" in2="BackgroundImageFix" result="shape"/>
<feColorMatrix in="SourceAlpha" type="matrix" values="0 0 0 0 0 0 0 0 0 0 0 0 0 0 0 0 0 0 127 0" result="hardAlpha"/>
<feOffset dx="1.49533" dy="2.24299"/>
<feGaussianBlur stdDeviation="1.49533"/>
<feComposite in2="hardAlpha" operator="arithmetic" k2="-1" k3="1"/>
<feColorMatrix type="matrix" values="0 0 0 0 0.85098 0 0 0 0 0.92549 0 0 0 0 0.913725 0 0 0 1 0"/>
<feBlend mode="normal" in2="shape" result="effect1_innerShadow_5962_1632"/>
<feGaussianBlur stdDeviation="9.34579" result="effect2_foregroundBlur_5962_1632"/>
</filter>
<filter id="filter11_f_5962_1632" x="450.835" y="92.4188" width="146.38" height="147.235" filterUnits="userSpaceOnUse" color-interpolation-filters="sRGB">
<feFlood flood-opacity="0" result="BackgroundImageFix"/>
<feBlend mode="normal" in="SourceGraphic" in2="BackgroundImageFix" result="shape"/>
<feGaussianBlur stdDeviation="20.1869" result="effect1_foregroundBlur_5962_1632"/>
</filter>
<filter id="filter12_f_5962_1632" x="254.196" y="68.7997" width="306.588" height="276.889" filterUnits="userSpaceOnUse" color-interpolation-filters="sRGB">
<feFlood flood-opacity="0" result="BackgroundImageFix"/>
<feBlend mode="normal" in="SourceGraphic" in2="BackgroundImageFix" result="shape"/>
<feGaussianBlur stdDeviation="20.1869" result="effect1_foregroundBlur_5962_1632"/>
</filter>
<filter id="filter13_f_5962_1632" x="257.383" y="-20.2446" width="502.295" height="374.456" filterUnits="userSpaceOnUse" color-interpolation-filters="sRGB">
<feFlood flood-opacity="0" result="BackgroundImageFix"/>
<feBlend mode="normal" in="SourceGraphic" in2="BackgroundImageFix" result="shape"/>
<feGaussianBlur stdDeviation="20.1869" result="effect1_foregroundBlur_5962_1632"/>
</filter>
<filter id="filter14_if_5962_1632" x="336.765" y="73.1585" width="333.526" height="219.117" filterUnits="userSpaceOnUse" color-interpolation-filters="sRGB">
<feFlood flood-opacity="0" result="BackgroundImageFix"/>
<feBlend mode="normal" in="SourceGraphic" in2="BackgroundImageFix" result="shape"/>
<feColorMatrix in="SourceAlpha" type="matrix" values="0 0 0 0 0 0 0 0 0 0 0 0 0 0 0 0 0 0 127 0" result="hardAlpha"/>
<feOffset dx="2.99065" dy="1.49533"/>
<feGaussianBlur stdDeviation="1.49533"/>
<feComposite in2="hardAlpha" operator="arithmetic" k2="-1" k3="1"/>
<feColorMatrix type="matrix" values="0 0 0 0 0.85098 0 0 0 0 0.92549 0 0 0 0 0.913725 0 0 0 1 0"/>
<feBlend mode="normal" in2="shape" result="effect1_innerShadow_5962_1632"/>
<feGaussianBlur stdDeviation="4.11215" result="effect2_foregroundBlur_5962_1632"/>
</filter>
<linearGradient id="paint0_linear_5962_1632" x1="231.768" y1="351.5" x2="337.768" y2="260.5" gradientUnits="userSpaceOnUse">
<stop stop-color="#D9ECE9" stop-opacity="0"/>
<stop offset="1" stop-color="#D9ECE9"/>
</linearGradient>
</defs>
</svg>
