<?xml version="1.0" encoding="utf-8"?>
<!-- Generator: Adobe Illustrator 18.1.1, SVG Export Plug-In . SVG Version: 6.00 Build 0)  -->
<svg version="1.1" id="Layer_1" xmlns="http://www.w3.org/2000/svg" xmlns:xlink="http://www.w3.org/1999/xlink" x="0px" y="0px"
	 viewBox="0 167.7 960.6 224.5" enable-background="new 0 167.7 960.6 224.5" xml:space="preserve">
<g>
	<g>
		<path fill="#FFFFFF" d="M102.2,167.7c0,0,33.7,31.1-15.6,96C41.5,321.8,97,409.5,151,389.2c0,0-14-17.1-18.2-36.3
			c-7.8-35.3,9.3-47.7,24.9-60.2c14.5-11.4,37.4-36.8,14.5-73.2c0,0,0.5,31.1-42,41.5C130.2,261.6,174.4,186.9,102.2,167.7z"/>
	</g>
	<path fill="#FFFFFF" d="M93.4,385.6c0,0-79.9-13-68.5-93.9c4.2-31.7-13.5-42-24.9-49.3c0,0,63.3,2.1,58.6,41.5
		C51.4,347.7,79.9,376.3,93.4,385.6z"/>
</g>
<g>
	<path fill="#FFFFFF" d="M291.1,282.9h-28V367h-15.6v-84.1h-28v-14h72.6L291.1,282.9z"/>
	<path fill="#FFFFFF" d="M345.6,369c-24.9,0-40-16.1-40-50.9s15-50.9,40-50.9s40,16.1,40,50.9C385.6,352.4,370.5,369,345.6,369z
		 M345.6,280.3c-13.5,0-23.9,8.3-23.9,37.4s10.4,37.4,23.9,37.4s23.9-8.3,23.9-37.4C369.5,289.1,359.1,280.3,345.6,280.3z"/>
	<path fill="#FFFFFF" d="M463.9,366.9l-20.2-36.3c-3.1,0.5-6.2,0.5-9.3,0.5h-6.7v35.8H412v-98.1c5.7-1,18.2-2.1,28.5-2.1
		c20.2,0,37.4,9.3,37.4,31.7c0,15-7.8,23.9-20.2,28l22.8,40h-16.6L463.9,366.9L463.9,366.9z M440.6,279.7c-4.2,0-9.3,0.5-13,1v37.9
		h7.8c15,0,27-4.7,27-19.7C462.4,284.4,450.9,279.7,440.6,279.7z"/>
	<path fill="#FFFFFF" d="M562.5,292.2c-5.2-9.3-11.9-11.9-20.8-11.9c-16.6,0-24.9,14-24.9,37.4c0,24.4,8.8,37.4,25.9,37.4
		c7.3,0,14-1.6,20.2-3.6l4.2,11.9c-7.8,3.6-17.1,5.2-24.9,5.2c-24.9,0-41.5-14.5-41.5-50.9c0-35.8,18.7-50.9,41-50.9
		c17.1,0,24.9,5.7,31.1,16.1L562.5,292.2z"/>
	<path fill="#FFFFFF" d="M653.8,366.9v-43.6h-44.1v43.6h-15.6v-98.1h15.6v40.5h44.1v-40.5h15.6v98.1H653.8z"/>
	<path fill="#FFFFFF" d="M729.6,366.9c-7.3,0-22.3,0-28.5-0.5v-97c6.7-1.6,20.2-2.6,28.5-2.6c18.2,0,34.8,5.7,34.8,25.4
		c0,9.3-4.7,16.1-10.9,20.8c9.3,4.2,16.1,11.4,16.1,24.4C769.6,359.1,753.5,366.9,729.6,366.9z M728.6,279.7c-3.1,0-7.8,0.5-11.9,1
		v28.5h15.6c2.6,0,5.2,0,7.8,0.5c6.2-3.6,8.8-9.3,8.8-15C748.8,282.9,740,279.7,728.6,279.7z M731.2,321.8h-14.5v32.7
		c3.6,0,8.8,0.5,11.9,0.5c14,0,24.4-3.1,24.4-16.6C753.5,325.9,744.6,321.8,731.2,321.8z"/>
	<path fill="#FFFFFF" d="M829.8,369c-24.9,0-40-16.1-40-50.9s15-50.9,40-50.9c24.9,0,40,16.1,40,50.9
		C869.7,352.4,854.7,369,829.8,369z M829.8,280.3c-13.5,0-23.9,8.3-23.9,37.4s10.4,37.4,23.9,37.4s23.9-8.3,23.9-37.4
		C853.6,289.1,843.2,280.3,829.8,280.3z"/>
	<path fill="#FFFFFF" d="M939.2,299.5l-11.4,17.1l11.9,18.2l20.8,31.7h-18.2l-14-21.8l-8.8-14l-8.8,14l-14,21.8H878l21.8-31.7
		l11.4-17.1l-11.9-18.2l-19.7-30.6h18.7l14,21.8l7.8,12.5l7.8-12.5l14-21.8h18.7L939.2,299.5z"/>
</g>
</svg>
