<svg preserveAspectRatio="none" width="100%" height="100%" overflow="visible" style="display: block;" viewBox="0 0 78.8154 61.3213" fill="none" xmlns="http://www.w3.org/2000/svg">
<path id="Union" d="M19.4648 44.4375C20.6869 44.4375 21.7424 44.7698 22.6318 45.4336C23.5212 46.0901 24.2089 47.0455 24.6934 48.3008C25.1851 49.5562 25.4306 51.0789 25.4307 52.8682C25.4307 54.6646 25.1886 56.1944 24.7041 57.457C24.2196 58.7125 23.5285 59.6722 22.6318 60.3359C21.7424 60.9924 20.6868 61.3213 19.4648 61.3213C18.25 61.3213 17.198 60.9925 16.3086 60.3359C15.4191 59.6722 14.7281 58.7125 14.2363 57.457C13.7519 56.1944 13.5098 54.6646 13.5098 52.8682C13.5098 51.0789 13.7519 49.5562 14.2363 48.3008C14.728 47.0455 15.4192 46.0901 16.3086 45.4336C17.198 44.7698 18.25 44.4375 19.4648 44.4375ZM47.7754 46.8945C46.9295 47.3562 46.1554 47.8831 45.4541 48.4746C44.7528 49.0662 44.1381 49.6973 43.6104 50.3682C43.0825 51.0392 42.66 51.7285 42.3418 52.4355C42.7539 52.0027 43.2452 51.6668 43.8164 51.4287C44.3948 51.1906 45.035 51.0723 45.7363 51.0723C46.6835 51.0723 47.5226 51.2808 48.2529 51.6992C48.9904 52.1176 49.5654 52.6914 49.9775 53.4199C50.397 54.1486 50.6064 54.99 50.6064 55.9424C50.6064 56.9812 50.3573 57.9084 49.8584 58.7236C49.3667 59.5316 48.6905 60.1662 47.8301 60.6279C46.9696 61.0897 45.9826 61.3212 44.8691 61.3213C43.7051 61.3213 42.6925 61.0613 41.832 60.542C40.9788 60.0225 40.3167 59.2899 39.8467 58.3447C39.3766 57.3923 39.1416 56.2735 39.1416 54.9893C39.1416 53.9504 39.301 52.9437 39.6191 51.9697C39.9373 50.9958 40.4005 50.0721 41.0078 49.1992C41.6152 48.3191 42.3566 47.5077 43.2314 46.7646C44.1135 46.0144 45.1147 45.347 46.2354 44.7627L47.7754 46.8945ZM6.33496 44.4375C7.30378 44.4376 8.18612 44.6435 8.98145 45.0547C9.77664 45.4659 10.409 46.0503 10.8789 46.8076C11.3489 47.5652 11.584 48.4604 11.584 49.4922C11.5839 50.2135 11.4581 50.942 11.2051 51.6777C10.9592 52.4065 10.5974 53.132 10.1201 53.8535C9.65014 54.5749 9.07162 55.2927 8.38477 56.0068C7.70505 56.7139 6.92768 57.4068 6.05273 58.085H11.7471V60.9961H1.37793V59.0371C2.65767 57.8973 3.73097 56.8905 4.59863 56.0176C5.47362 55.1446 6.17173 54.3651 6.69238 53.6797C7.21295 52.9943 7.58893 52.3668 7.82031 51.7969C8.05171 51.2197 8.16797 50.6603 8.16797 50.1191C8.16793 49.5637 8.06318 49.0766 7.85352 48.6582C7.65106 48.2398 7.36133 47.9154 6.98535 47.6846C6.61656 47.4537 6.18606 47.3379 5.69434 47.3379C5.13038 47.3379 4.58445 47.5006 4.05664 47.8252C3.52881 48.1426 3.08068 48.5828 2.71191 49.1455L1.01953 47.0244C1.65584 46.202 2.44381 45.5665 3.38379 45.1191C4.33109 44.6646 5.31535 44.4375 6.33496 44.4375ZM31.9658 44.4375C32.9348 44.4375 33.8178 44.6434 34.6133 45.0547C35.4085 45.4659 36.0408 46.0503 36.5107 46.8076C36.9808 47.5652 37.2158 48.4604 37.2158 49.4922C37.2158 50.2135 37.0899 50.942 36.8369 51.6777C36.5911 52.4065 36.2292 53.132 35.752 53.8535C35.282 54.5749 34.7035 55.2927 34.0166 56.0068C33.3369 56.7139 32.5595 57.4068 31.6846 58.085H37.3789V60.9961H27.0088V59.0371C28.2887 57.8972 29.3627 56.8906 30.2305 56.0176C31.1055 55.1446 31.8036 54.3651 32.3242 53.6797C32.8448 52.9943 33.2208 52.3668 33.4521 51.7969C33.6835 51.2197 33.7998 50.6603 33.7998 50.1191C33.7998 49.5637 33.695 49.0766 33.4854 48.6582C33.2829 48.2398 32.9931 47.9154 32.6172 47.6846C32.2484 47.4537 31.8179 47.3379 31.3262 47.3379C30.7622 47.3379 30.2163 47.5005 29.6885 47.8252C29.1606 48.1426 28.7125 48.5828 28.3438 49.1455L26.6514 47.0244C27.2877 46.2019 28.0756 45.5665 29.0156 45.1191C29.9628 44.6647 30.9464 44.4376 31.9658 44.4375ZM19.4648 47.3486C18.6695 47.3486 18.0479 47.8323 17.5996 48.7988C17.1513 49.7584 16.9268 51.1186 16.9268 52.8789C16.9268 54.6321 17.1513 55.9922 17.5996 56.959C18.0479 57.9258 18.6694 58.4092 19.4648 58.4092C20.2747 58.4092 20.9007 57.9258 21.3418 56.959C21.79 55.9922 22.0137 54.6319 22.0137 52.8789C22.0136 51.1186 21.7901 49.7584 21.3418 48.7988C20.9007 47.832 20.2747 47.3486 19.4648 47.3486ZM44.9121 53.2256C44.471 53.2256 44.0731 53.3369 43.7188 53.5605C43.3645 53.7841 43.0862 54.091 42.8838 54.4805C42.6814 54.8628 42.5801 55.2996 42.5801 55.79C42.5801 56.2879 42.6813 56.736 42.8838 57.1328C43.0935 57.5223 43.3718 57.8326 43.7188 58.0635C44.0659 58.2944 44.4532 58.4092 44.8799 58.4092C45.3208 58.4091 45.711 58.2942 46.0508 58.0635C46.3979 57.8254 46.6735 57.5037 46.876 57.0996C47.0855 56.6957 47.1904 56.2447 47.1904 55.7471C47.1904 55.2565 47.0892 54.8234 46.8867 54.4482C46.6915 54.0731 46.4238 53.777 46.084 53.5605C45.7441 53.3369 45.3532 53.2256 44.9121 53.2256ZM20.8213 25.5439C21.819 25.544 22.7049 25.7897 23.4785 26.2803C24.2521 26.7637 24.8632 27.431 25.3115 28.2822C25.7598 29.1264 25.9844 30.0897 25.9844 31.1719C25.9844 32.2469 25.7598 33.2102 25.3115 34.0615C24.8632 34.9128 24.2521 35.5836 23.4785 36.0742C22.7049 36.5576 21.819 36.7997 20.8213 36.7998C20.1126 36.7998 19.4541 36.6734 18.8467 36.4209C18.2465 36.1612 17.7183 35.8042 17.2627 35.3496V41.9941H14.1387V25.7607H16.8721L17.0352 27.2324C17.498 26.7057 18.0517 26.2939 18.6953 25.998C19.346 25.6952 20.055 25.5439 20.8213 25.5439ZM6.80078 20.0244C7.56007 20.0244 8.34888 20.1251 9.16602 20.3271C9.99025 20.5292 10.8109 20.8359 11.6279 21.2471L10.3154 23.9424C9.80201 23.6321 9.24824 23.3864 8.65527 23.2061C8.0625 23.0258 7.50585 22.9356 6.98535 22.9355C6.51539 22.9355 6.10332 23.0081 5.74902 23.1523C5.4021 23.2966 5.13077 23.4983 4.93555 23.7578C4.74035 24.0103 4.64262 24.31 4.64258 24.6562C4.64258 25.0674 4.78353 25.4245 5.06543 25.7275C5.34745 26.0234 5.7128 26.2867 6.16113 26.5176C6.61667 26.7484 7.10439 26.9801 7.625 27.2109C8.15999 27.4418 8.699 27.6937 9.24121 27.9678C9.79079 28.2419 10.2899 28.5672 10.7383 28.9424C11.1938 29.3103 11.5592 29.754 11.834 30.2734C12.116 30.7857 12.2568 31.4026 12.2568 32.124C12.2568 33.0763 12.0041 33.9133 11.498 34.6348C10.9919 35.349 10.2866 35.9085 9.38281 36.3125C8.4789 36.7093 7.42598 36.9072 6.22559 36.9072C5.12659 36.9072 4.07435 36.7304 3.06934 36.377C2.06432 36.0234 1.12742 35.5082 0.259766 34.8301L1.84375 32.2861C2.34262 32.6901 2.8234 33.0225 3.28613 33.2822C3.75612 33.5347 4.21928 33.7221 4.6748 33.8447C5.13038 33.9602 5.59695 34.0176 6.07422 34.0176C6.63802 34.0176 7.12601 33.9389 7.53809 33.7803C7.95027 33.6215 8.26899 33.3935 8.49316 33.0977C8.72431 32.802 8.83978 32.4596 8.83984 32.0703C8.83984 31.6158 8.69548 31.2331 8.40625 30.9229C8.11706 30.6127 7.73748 30.3422 7.26758 30.1113C6.80486 29.8733 6.30201 29.6461 5.75977 29.4297C5.23188 29.2132 4.70015 28.9781 4.16504 28.7256C3.63727 28.4659 3.14943 28.1591 2.70117 27.8057C2.26006 27.4521 1.90174 27.0226 1.62695 26.5176C1.3595 26.0054 1.22559 25.3848 1.22559 24.6562C1.22563 23.704 1.46418 22.8811 1.94141 22.1885C2.42589 21.496 3.08804 20.962 3.92676 20.5869C4.76547 20.2118 5.72352 20.0244 6.80078 20.0244ZM32.2373 25.5439C33.293 25.5439 34.2077 25.7534 34.9814 26.1719C35.7552 26.5831 36.3521 27.1673 36.7715 27.9248C37.1981 28.6751 37.4111 29.5661 37.4111 30.5977V36.583H34.6992L34.5371 35.2949C34.1394 35.7711 33.6473 36.1432 33.0615 36.4102C32.4759 36.6698 31.8322 36.7998 31.1309 36.7998C30.3716 36.7998 29.6955 36.6548 29.1025 36.3662C28.5097 36.0704 28.043 35.6665 27.7031 35.1543C27.3634 34.6349 27.1934 34.047 27.1934 33.3906C27.1934 32.698 27.3783 32.0882 27.7471 31.5615C28.1159 31.0348 28.622 30.623 29.2656 30.3271C29.9163 30.0242 30.6543 29.873 31.4785 29.873C31.9629 29.8731 32.4473 29.927 32.9316 30.0352C33.4233 30.1434 33.8785 30.2955 34.2979 30.4902V30.209C34.2979 29.7761 34.1755 29.404 33.9297 29.0938C33.6911 28.7763 33.3583 28.5306 32.9316 28.3574C32.5123 28.1843 32.0421 28.0977 31.5215 28.0977C31.0225 28.0977 30.5269 28.1772 30.0352 28.3359C29.5507 28.4947 29.1026 28.7334 28.6904 29.0508L27.8447 26.6807C28.575 26.3055 29.3128 26.0235 30.0576 25.8359C30.8095 25.6412 31.536 25.544 32.2373 25.5439ZM44.7607 25.5439C45.6716 25.544 46.5101 25.7138 47.2764 26.0527C48.0429 26.3918 48.6909 26.8611 49.2188 27.46L47.3857 29.375C47.1037 29.0503 46.7454 28.7976 46.3115 28.6172C45.885 28.4297 45.4367 28.336 44.9668 28.3359C44.4245 28.3359 43.9393 28.4588 43.5127 28.7041C43.0861 28.9422 42.7497 29.2746 42.5039 29.7002C42.2582 30.1186 42.1357 30.6022 42.1357 31.1504C42.1358 31.7058 42.2581 32.2 42.5039 32.6328C42.7498 33.0657 43.0861 33.4051 43.5127 33.6504C43.9393 33.8885 44.4245 34.0068 44.9668 34.0068C45.4367 34.0068 45.8885 33.9167 46.3223 33.7363C46.7561 33.5488 47.111 33.2934 47.3857 32.9688L49.2295 34.8623C48.7017 35.4683 48.0545 35.9447 47.2881 36.291C46.5217 36.6301 45.679 36.7998 44.7607 36.7998C43.6471 36.7998 42.6488 36.5576 41.7666 36.0742C40.8918 35.5837 40.2015 34.9127 39.6953 34.0615C39.1964 33.2102 38.9463 32.2469 38.9463 31.1719C38.9463 30.0896 39.1964 29.1264 39.6953 28.2822C40.2015 27.4309 40.8917 26.7637 41.7666 26.2803C42.6488 25.7896 43.6471 25.5439 44.7607 25.5439ZM55.917 25.5439C57.0377 25.544 58.0247 25.8073 58.8779 26.334C59.7312 26.8535 60.3968 27.5825 60.874 28.5205C61.3511 29.4511 61.5898 30.5296 61.5898 31.7559V32.1025H53.5957C53.7258 32.528 53.939 32.903 54.2354 33.2275C54.5318 33.545 54.9007 33.7978 55.3418 33.9854C55.7829 34.1729 56.2891 34.2666 56.8604 34.2666C57.9667 34.2666 58.9976 33.9096 59.9521 33.1953L60.9062 35.3711C59.5613 36.3234 58.0893 36.7998 56.4912 36.7998C55.3055 36.7997 54.2391 36.5469 53.292 36.042C52.352 35.5297 51.6072 34.8369 51.0576 33.9639C50.5153 33.0909 50.2442 32.1063 50.2441 31.0098C50.2441 29.9636 50.4897 29.0286 50.9814 28.2061C51.4804 27.3836 52.1566 26.734 53.0098 26.2578C53.863 25.7817 54.8324 25.5439 55.917 25.5439ZM32.0527 31.6152C31.46 31.6153 30.9756 31.7452 30.5996 32.0049C30.2236 32.2646 30.0352 32.6005 30.0352 33.0117C30.0352 33.2786 30.1119 33.5199 30.2637 33.7363C30.4228 33.9456 30.6358 34.1117 30.9033 34.2344C31.1709 34.3498 31.4746 34.4072 31.8145 34.4072C32.2266 34.4072 32.6211 34.3171 32.9971 34.1367C33.3729 33.9564 33.6769 33.7115 33.9082 33.4014C34.1468 33.0911 34.2726 32.7482 34.2871 32.373V32.2969C33.9691 32.0806 33.6148 31.9152 33.2246 31.7998C32.8414 31.6771 32.4505 31.6152 32.0527 31.6152ZM20.04 28.3252C19.5338 28.3252 19.0778 28.4375 18.6729 28.6611C18.2681 28.8776 17.9395 29.1808 17.6865 29.5703C17.4407 29.9599 17.2989 30.4071 17.2627 30.9121V31.4531C17.2989 31.9438 17.4407 32.3838 17.6865 32.7734C17.9323 33.1557 18.2573 33.459 18.6621 33.6826C19.0671 33.8991 19.5231 34.0068 20.0293 34.0068C20.5715 34.0068 21.0488 33.8884 21.4609 33.6504C21.8731 33.4051 22.1944 33.0692 22.4258 32.6436C22.6644 32.2107 22.7842 31.7202 22.7842 31.1719C22.7842 30.6164 22.6644 30.1259 22.4258 29.7002C22.1944 29.2745 21.8731 28.9387 21.4609 28.6934C21.0488 28.4481 20.5751 28.3252 20.04 28.3252ZM56.0791 28.1416C55.6021 28.1416 55.1757 28.246 54.7998 28.4551C54.431 28.6643 54.1308 28.9463 53.8994 29.2998C53.6681 29.6533 53.5192 30.0608 53.4541 30.5225H58.7148C58.657 30.0536 58.509 29.6425 58.2705 29.2891C58.0391 28.9283 57.7319 28.6464 57.3486 28.4443C56.9726 28.2423 56.5491 28.1416 56.0791 28.1416ZM40.1016 5.62793C40.868 5.62795 41.5697 5.77902 42.2061 6.08203C42.8496 6.37784 43.4025 6.78976 43.8652 7.31641L44.0059 5.84375H46.7393V16.3633C46.7393 17.5608 46.476 18.6038 45.9482 19.4912C45.4276 20.3858 44.6898 21.0752 43.7354 21.5586C42.7809 22.0492 41.6636 22.2949 40.3838 22.2949C38.605 22.2949 36.9921 21.739 35.5459 20.6279L36.8037 18.0957C37.7653 19.0407 38.8863 19.5126 40.166 19.5127C40.8529 19.5127 41.4534 19.3757 41.9668 19.1016C42.4873 18.8275 42.8924 18.4455 43.1816 17.9551C43.4781 17.4646 43.6269 16.8943 43.627 16.2451V15.3574C43.1786 15.8048 42.6539 16.1582 42.0537 16.418C41.4536 16.6704 40.7993 16.7968 40.0908 16.7969C39.1146 16.7969 38.2396 16.5547 37.4658 16.0713C36.6921 15.5807 36.0847 14.917 35.6436 14.0801C35.2024 13.2359 34.9814 12.2797 34.9814 11.2119C34.9815 10.137 35.2025 9.18064 35.6436 8.34375C36.0846 7.50699 36.6922 6.84661 37.4658 6.36328C38.2395 5.87278 39.1182 5.62793 40.1016 5.62793ZM28.2725 5.62793C29.3282 5.62793 30.2429 5.8374 31.0166 6.25586C31.7903 6.66712 32.3872 7.25121 32.8066 8.00879C33.2332 8.75909 33.4463 9.65001 33.4463 10.6816V16.667H30.7354L30.5723 15.3789C30.1745 15.8551 29.6824 16.2262 29.0967 16.4932C28.511 16.7529 27.8674 16.8828 27.166 16.8828C26.4068 16.8828 25.7306 16.7388 25.1377 16.4502C24.5448 16.1544 24.0781 15.7505 23.7383 15.2383C23.3984 14.7188 23.2285 14.1302 23.2285 13.4736C23.2286 12.7813 23.4136 12.172 23.7822 11.6455C24.151 11.1188 24.6572 10.707 25.3008 10.4111C25.9515 10.1082 26.6894 9.95703 27.5137 9.95703C27.9981 9.95705 28.4824 10.0109 28.9668 10.1191C29.4585 10.2274 29.9146 10.3784 30.334 10.5732V10.292C30.3339 9.85927 30.2106 9.48789 29.9648 9.17773C29.7262 8.86027 29.3934 8.61457 28.9668 8.44141C28.5474 8.26827 28.0773 8.18164 27.5566 8.18164C27.0577 8.18165 26.562 8.2612 26.0703 8.41992C25.586 8.57864 25.1376 8.81646 24.7256 9.13379L23.8799 6.76367C24.6101 6.38858 25.3481 6.10748 26.0928 5.91992C26.8446 5.72519 27.5712 5.62795 28.2725 5.62793ZM53.2207 5.84375H56.2256V8.61426H53.2207V12.2295C53.2207 12.8211 53.3836 13.2833 53.709 13.6152C54.0343 13.9398 54.4395 14.1015 54.9238 14.1016C55.3649 14.1016 55.7954 13.9646 56.2148 13.6904L56.6377 16.3857C55.8062 16.7176 54.9997 16.8828 54.2188 16.8828C53.409 16.8828 52.6931 16.714 52.0713 16.375C51.4568 16.0288 50.976 15.5486 50.6289 14.9355C50.2818 14.3151 50.1084 13.6001 50.1084 12.792V8.61426H48.21V5.84375H50.2705V3.13867H53.2207V5.84375ZM62.5117 5.62793C63.5675 5.62794 64.4821 5.83739 65.2559 6.25586C66.0295 6.66711 66.6265 7.25125 67.0459 8.00879C67.4724 8.75907 67.6855 9.65006 67.6855 10.6816V16.667H64.9736L64.8115 15.3789C64.4138 15.8551 63.9216 16.2262 63.3359 16.4932C62.7502 16.7529 62.1067 16.8828 61.4053 16.8828C60.646 16.8828 59.9699 16.7388 59.377 16.4502C58.784 16.1544 58.3174 15.7505 57.9775 15.2383C57.6377 14.7188 57.4678 14.1302 57.4678 13.4736C57.4679 12.7812 57.6528 12.1721 58.0215 11.6455C58.3903 11.1188 58.8965 10.707 59.54 10.4111C60.1906 10.1083 60.9279 9.95708 61.752 9.95703C62.2364 9.95703 62.7216 10.0109 63.2061 10.1191C63.6976 10.2273 64.153 10.3785 64.5723 10.5732V10.292C64.5722 9.85933 64.4498 9.48787 64.2041 9.17773C63.9655 8.8603 63.6326 8.61457 63.2061 8.44141C62.7867 8.26826 62.3165 8.18166 61.7959 8.18164C61.2969 8.18164 60.8013 8.26119 60.3096 8.41992C59.8252 8.57862 59.3769 8.81647 58.9648 9.13379L58.1182 6.76367C58.8484 6.38855 59.5864 6.10751 60.3311 5.91992C61.0831 5.72511 61.8103 5.62793 62.5117 5.62793ZM6.82227 11.2227L10.1416 0.432617H13.2119L16.5195 11.2012L19.8174 0.432617H23.332L18.0605 16.667H14.9902L11.6826 5.93066L8.36328 16.667H5.29297L0 0.432617H3.50391L6.82227 11.2227ZM73.0283 16.667H69.915V5.84375H73.0283V16.667ZM78.8154 16.667H75.4854V0H78.8154V16.667ZM28.0879 11.6992C27.4951 11.6993 27.0107 11.8292 26.6348 12.0889C26.2588 12.3486 26.0703 12.6845 26.0703 13.0957C26.0704 13.3625 26.1471 13.604 26.2988 13.8203C26.4579 14.0295 26.671 14.1957 26.9385 14.3184C27.206 14.4338 27.5098 14.4912 27.8496 14.4912C28.2618 14.4912 28.6562 14.4011 29.0322 14.2207C29.4081 14.0404 29.712 13.7954 29.9434 13.4854C30.1819 13.1752 30.3077 12.8321 30.3223 12.457V12.3809C30.0042 12.1645 29.6501 11.9982 29.2598 11.8828C28.8765 11.7602 28.4856 11.6992 28.0879 11.6992ZM62.3271 11.6992C61.7343 11.6992 61.25 11.8292 60.874 12.0889C60.498 12.3486 60.3096 12.6844 60.3096 13.0957C60.3097 13.3624 60.3854 13.604 60.5371 13.8203C60.6962 14.0295 60.9102 14.1957 61.1777 14.3184C61.4452 14.4337 61.7491 14.4912 62.0889 14.4912C62.5009 14.4912 62.8946 14.4009 63.2705 14.2207C63.6463 14.0404 63.9503 13.7954 64.1816 13.4854C64.4202 13.1752 64.547 12.8321 64.5615 12.457V12.3809C64.2434 12.1645 63.8894 11.9982 63.499 11.8828C63.1158 11.7602 62.7249 11.6992 62.3271 11.6992ZM40.8936 8.39844C40.3729 8.39844 39.9063 8.52129 39.4941 8.7666C39.082 9.01189 38.7562 9.34685 38.5176 9.77246C38.279 10.1909 38.1602 10.6709 38.1602 11.2119C38.1602 11.7529 38.2791 12.2365 38.5176 12.6621C38.7562 13.0878 39.082 13.4236 39.4941 13.6689C39.9063 13.907 40.373 14.0264 40.8936 14.0264C41.3996 14.0263 41.8585 13.9175 42.2705 13.7012C42.6827 13.4775 43.0119 13.1709 43.2578 12.7812C43.5036 12.3845 43.6269 11.9372 43.627 11.4395V10.9736C43.6269 10.476 43.5001 10.0321 43.2471 9.64258C43.0012 9.25305 42.6719 8.94982 42.2598 8.7334C41.855 8.50989 41.3995 8.39848 40.8936 8.39844ZM71.4658 0.302734C71.8852 0.302734 72.2365 0.447725 72.5186 0.736328C72.8074 1.01754 72.9521 1.36356 72.9521 1.77441C72.9521 2.18547 72.8075 2.5357 72.5186 2.82422C72.2365 3.11282 71.8852 3.25781 71.4658 3.25781C71.0537 3.25778 70.7068 3.11279 70.4248 2.82422C70.1429 2.53564 70.002 2.18562 70.002 1.77441C70.002 1.36341 70.143 1.01759 70.4248 0.736328C70.7068 0.447753 71.0537 0.302762 71.4658 0.302734Z" fill="var(--fill-0, white)"/>
</svg>
