<svg viewBox="0 0 342.5 126.2" xmlns="http://www.w3.org/2000/svg"><path d="m84 1.9v5.7s-10.2-3.8-16.8 3.1c-4.8 5-5.2 10.6-3 18.1 21.6 0 25 12.1 25 12.1l-2.2-13.9 6.8-8.3c0-9.8-8.1-16.3-9.8-16.8z" fill="#fff"/><circle cx="85.9" cy="15.9" r="2.6"/><path d="m89.2 40.9s-3.3-16.6-24.9-12.1c-2.2-7.5-1.8-13 3-18.1 6.5-6.9 16.7-3.1 16.7-3.1v-5.7c-3.6-1.6-7-1.9-10.8-1.9-13.9 0-21.6 10.4-24.9 17.4l-39.1 71.9 11-2.1-20.2 39 14.1-2.5 10.8-30.7c30.6 0 69.8-11 64.3-52.1z"/><path d="m102.4 27-8.6-8.3-6.8 8.3z"/><path d="m30 84.1s1-.2 2.8-.6 4.3-1 7.3-1.8c1.5-.4 3.1-.9 4.8-1.5s3.5-1.2 5.2-2c1.8-.7 3.6-1.6 5.4-2.6s3.5-2.1 5.1-3.4c.4-.3.8-.6 1.2-1l1.2-1c.7-.7 1.5-1.4 2.2-2.2.7-.7 1.3-1.5 1.9-2.3l.9-1.2.4-.6.4-.6c.2-.4.5-.8.7-1.2s.4-.8.7-1.2l.3-.6.3-.6c.2-.4.4-.8.5-1.2l.9-2.4c.2-.8.5-1.6.7-2.3s.3-1.5.5-2.1c.1-.7.2-1.3.3-2 .1-.6.2-1.2.2-1.7.1-.5.1-1 .2-1.5.1-1.8.1-2.8.1-2.8l1.6.1s-.1 1.1-.2 2.9c-.1.5-.1 1-.2 1.5-.1.6-.1 1.2-.3 1.8-.1.6-.3 1.3-.4 2-.2.7-.4 1.4-.6 2.2s-.5 1.5-.8 2.4c-.3.8-.6 1.6-1 2.5l-.6 1.2-.3.6-.3.6c-.2.4-.5.8-.7 1.3-.3.4-.5.8-.8 1.2-.1.2-.3.4-.4.6l-.4.6-.9 1.2c-.7.8-1.3 1.6-2.1 2.3-.7.8-1.5 1.4-2.3 2.2l-1.2 1c-.4.3-.8.6-1.3.9-1.7 1.2-3.5 2.3-5.3 3.3-1.8.9-3.7 1.8-5.5 2.5s-3.6 1.3-5.3 1.8-3.3 1-4.9 1.3c-3 .7-5.6 1.3-7.4 1.6-1.6.6-2.6.8-2.6.8z" fill="#fff"/><path d="m127 83.9h-8.8l-12.6-36.4h7.9l9 27.5 9-27.5h7.9l9 27.5 9-27.5h7.9l-12.3 36.4h-8.8l-8.6-24.9zm73.1 0h-7v-4.9c-3 3.6-7 5.4-12.1 5.4-3.8 0-6.9-1.1-9.4-3.2s-3.7-5-3.7-8.6 1.3-6.3 4-8c2.6-1.8 6.2-2.7 10.7-2.7h9.9v-1.4c0-4.8-2.7-7.3-8.1-7.3-3.4 0-6.9 1.2-10.5 3.7l-3.4-4.8c4.4-3.5 9.4-5.3 15.1-5.3 4.3 0 7.8 1.1 10.5 3.2 2.7 2.2 4.1 5.6 4.1 10.2v23.7zm-7.7-13.6v-3.1h-8.6c-5.5 0-8.3 1.7-8.3 5.2 0 1.8.7 3.1 2.1 4.1 1.4.9 3.3 1.4 5.7 1.4s4.6-.7 6.4-2.1c1.8-1.3 2.7-3.1 2.7-5.5zm49.3-22.8v31.7c0 6.4-1.7 11.3-5.2 14.5s-8 4.8-13.4 4.8c-5.5 0-10.4-1.7-14.8-5.1l3.6-5.8c3.6 2.7 7.1 4 10.8 4 3.6 0 6.5-.9 8.6-2.8s3.2-4.9 3.2-9v-4.7c-1.1 2.1-2.8 3.9-4.9 5.1-2.1 1.3-4.5 1.9-7.1 1.9-4.8 0-8.8-1.7-11.9-5.1s-4.7-7.6-4.7-12.6 1.6-9.2 4.7-12.6 7.1-5.1 11.9-5.1 8.7 2 11.7 6v-5.4h7.5zm-28.4 16.8c0 3 .9 5.6 2.8 7.7 1.8 2.2 4.3 3.2 7.5 3.2 3.1 0 5.7-1 7.6-3.1s2.9-4.7 2.9-7.8-1-5.8-2.9-7.9c-2-2.2-4.5-3.2-7.6-3.2s-5.6 1.1-7.4 3.4c-2 2.1-2.9 4.7-2.9 7.7zm47.6-10.7v18.5c0 1.7.5 3.1 1.4 4.1s2.2 1.5 3.8 1.5 3.2-.8 4.7-2.4l3.1 5.4c-2.7 2.4-5.7 3.6-8.9 3.6-3.3 0-6-1.1-8.3-3.4s-3.5-5.3-3.5-9.1v-18.2h-4.6v-6.2h4.6v-11.3h7.7v11.4h9.6v6.2h-9.6zm48.6 30.3h-7v-4.9c-3 3.6-7 5.4-12.1 5.4-3.8 0-6.9-1.1-9.4-3.2s-3.7-5-3.7-8.6 1.3-6.3 4-8c2.6-1.8 6.2-2.7 10.7-2.7h9.9v-1.4c0-4.8-2.7-7.3-8.1-7.3-3.4 0-6.9 1.2-10.5 3.7l-3.4-4.8c4.4-3.5 9.4-5.3 15.1-5.3 4.3 0 7.8 1.1 10.5 3.2 2.7 2.2 4.1 5.6 4.1 10.2v23.7zm-7.7-13.6v-3.1h-8.6c-5.5 0-8.3 1.7-8.3 5.2 0 1.8.7 3.1 2.1 4.1 1.4.9 3.3 1.4 5.7 1.4s4.6-.7 6.4-2.1c1.8-1.3 2.7-3.1 2.7-5.5zm17.5-30.1c-1-1-1.4-2.1-1.4-3.4s.5-2.5 1.4-3.4c1-1 2.1-1.4 3.4-1.4s2.5.5 3.4 1.4c1 1 1.4 2.1 1.4 3.4s-.5 2.5-1.4 3.4-2.1 1.4-3.4 1.4c-1.3.1-2.4-.4-3.4-1.4zm7.2 43.7h-7.7v-36.4h7.7zm16 0h-7.7v-50.8h7.7z" fill="#231f20"/></svg>