<svg xmlns="http://www.w3.org/2000/svg" viewBox="0 0 33 33" width="40" height="40" fill="#666666">
  <g transform="translate(0, 5)">
    <path d="M32.293 4.074c-.352-1.406-1.465-2.52-2.813-2.87C26.96.5 17 .5 17 .5S6.98.5 4.46 1.203C3.114 1.555 2 2.668 1.649 4.074.945 6.535.945 11.81.945 11.81s0 5.214.703 7.734c.352 1.406 1.465 2.46 2.813 2.813C6.98 23 17 23 17 23s9.96 0 12.48-.645c1.348-.351 2.461-1.406 2.813-2.812.703-2.52.703-7.734.703-7.734s0-5.274-.703-7.735zm-18.574 12.48V7.064l8.32 4.746-8.32 4.746z"/>
  </g>
</svg>